<svg width="512" height="512" viewBox="0 0 512 512" xmlns="http://www.w3.org/2000/svg" role="img" aria-label="Sanoria logo">
  <defs>
    <linearGradient id="g" x1="0" y1="0" x2="1" y2="1">
      <stop offset="0%" stop-color="#d4b24d"/>
      <stop offset="100%" stop-color="#8e6c12"/>
    </linearGradient>
    <filter id="glow" x="-50%" y="-50%" width="200%" height="200%">
      <feGaussianBlur stdDeviation="6" result="b"/>
      <feMerge>
        <feMergeNode in="b"/>
        <feMergeNode in="SourceGraphic"/>
      </feMerge>
    </filter>
  </defs>
  <rect width="100%" height="100%" fill="#111214"/>
  <circle cx="256" cy="256" r="180" fill="url(#g)" opacity="0.15"/>
  <path d="M140 320c28 40 88 64 142 44 30-11 58-40 58-74 0-30-20-47-46-58-18-8-44-14-60-24-12-8-16-18-8-30 14-20 50-24 78-20 22 3 44 12 62 26l24-42c-28-22-70-34-108-34-38 1-78 12-102 38-16 18-22 40-16 62 6 20 22 34 40 42 22 10 46 14 66 24 12 6 22 14 22 26 0 14-12 26-30 32-44 14-88-4-110-28l-14 46z" fill="url(#g)" filter="url(#glow)"/>
  <text x="50%" y="88%" text-anchor="middle" fill="#c9a227" font-family="'Playfair Display', serif" font-size="48">Sanoria</text>
</svg>